<svg id="Capa_1" data-name="Capa 1" xmlns="http://www.w3.org/2000/svg" xmlns:xlink="http://www.w3.org/1999/xlink" viewBox="0 0 500 300"><defs><style>.cls-1{fill:url(#Degradado_sin_nombre_23);}.cls-2{fill:url(#Degradado_sin_nombre_23-2);}.cls-3{fill:#8f8f8f;}.cls-4{fill:url(#Degradado_sin_nombre_23-3);}.cls-5{fill:url(#Degradado_sin_nombre_23-4);}.cls-6{fill:url(#Degradado_sin_nombre_23-5);}.cls-7{fill:url(#Degradado_sin_nombre_23-6);}.cls-8{fill:url(#Degradado_sin_nombre_23-7);}.cls-9{font-size:18px;fill:#21272b;font-family:Montserrat-Regular, Montserrat;letter-spacing:1em;}.cls-10{letter-spacing:1.03em;}.cls-11{letter-spacing:0.97em;}.cls-12{letter-spacing:0.99em;}.cls-13{letter-spacing:0.98em;}</style><linearGradient id="Degradado_sin_nombre_23" x1="463.33" y1="193.42" x2="394.51" y2="153.68" gradientUnits="userSpaceOnUse"><stop offset="0" stop-color="#62495b"/><stop offset="1" stop-color="#875a7b"/></linearGradient><linearGradient id="Degradado_sin_nombre_23-2" x1="399.03" y1="193.52" x2="349.11" y2="164.7" xlink:href="#Degradado_sin_nombre_23"/><linearGradient id="Degradado_sin_nombre_23-3" x1="270.93" y1="156.28" x2="163.33" y2="94.16" xlink:href="#Degradado_sin_nombre_23"/><linearGradient id="Degradado_sin_nombre_23-4" x1="363.1" y1="139.55" x2="296.77" y2="101.26" xlink:href="#Degradado_sin_nombre_23"/><linearGradient id="Degradado_sin_nombre_23-5" x1="294.18" y1="139.18" x2="227.86" y2="100.89" xlink:href="#Degradado_sin_nombre_23"/><linearGradient id="Degradado_sin_nombre_23-6" x1="116.82" y1="194.21" x2="65.63" y2="164.67" xlink:href="#Degradado_sin_nombre_23"/><linearGradient id="Degradado_sin_nombre_23-7" x1="74.96" y1="184.98" x2="24.42" y2="155.8" xlink:href="#Degradado_sin_nombre_23"/></defs><path class="cls-1" d="M413.91,129.35a6.48,6.48,0,0,0-8,6.22v43.62h0a28.63,28.63,0,0,0,9,20.94,30.9,30.9,0,0,0,43.19,0,29.54,29.54,0,0,0,0-42.4,31,31,0,0,0-39.15-3.37V135.81A6.56,6.56,0,0,0,413.91,129.35Zm10.24,62a17.27,17.27,0,0,1-5-12.19,16.67,16.67,0,0,1,5-12.24,17.36,17.36,0,0,1,12.45-5.05,17.27,17.27,0,1,1-12.45,29.48Z"/><path class="cls-2" d="M401.5,167.15A29.59,29.59,0,0,0,374.72,150a29.47,29.47,0,0,0-20.83,50.33,29.37,29.37,0,0,0,38,3.07l.68-.52c.58-.44,1-.81,1.29-1a6.37,6.37,0,0,0,1.75-2.69,6.24,6.24,0,0,0-6-8.05,6.18,6.18,0,0,0-3.87,1.36l-.22.18c-.29.24-.6.48-.91.71a16.48,16.48,0,0,1-9.94,3.23q-8.24,0-12.13-4.91,2.51-1.19,17-7.74l18.84-8.49a5.91,5.91,0,0,0,3.28-3.49,5.82,5.82,0,0,0-.21-4.76ZM357.78,180v-.36a16.87,16.87,0,0,1,16.94-17q7.89,0,11.68,4.51Z"/><path class="cls-3" d="M306.44,162.11a17.27,17.27,0,1,0,0,34.53,17.22,17.22,0,0,0,12.13-5,17.3,17.3,0,0,0,0-24.57A17.25,17.25,0,0,0,306.44,162.11Z"/><path class="cls-4" d="M207.53,178.87a30,30,0,0,1,51.2-21.19,30.23,30.23,0,0,1,6.25,8.91L231.51,74.64a30,30,0,0,0-38.45-17.93h0a30,30,0,0,0-17.93,38.45l33.54,92.17A30.71,30.71,0,0,1,207.53,178.87Z"/><path class="cls-5" d="M350.91,57.08h0A30,30,0,0,0,312.46,75L279,167a30,30,0,0,1,6.26-8.92,30,30,0,0,1,51.19,21.2,30.64,30.64,0,0,1-1.14,8.45l33.54-92.17A30,30,0,0,0,350.91,57.08Z"/><path class="cls-3" d="M237.52,161.74a17.27,17.27,0,1,0,0,34.53,17.22,17.22,0,0,0,12.13-5,17.29,17.29,0,0,0,0-24.58A17.26,17.26,0,0,0,237.52,161.74Z"/><path class="cls-6" d="M282,56.71h0a30,30,0,0,0-38.45,17.93l-33.47,92a30,30,0,0,1,6.25-8.91,30,30,0,0,1,51.2,21.19,30.71,30.71,0,0,1-1.15,8.46l33.55-92.17A30,30,0,0,0,282,56.71Z"/><path class="cls-3" d="M171.84,135.81v18.55a31,31,0,0,0-39.16,3.37,29.56,29.56,0,0,0,0,42.4,30.91,30.91,0,0,0,43.2,0,28.67,28.67,0,0,0,9-20.94h0V135.57a6.48,6.48,0,0,0-8-6.22A6.56,6.56,0,0,0,171.84,135.81Zm-17.4,60.6a17.27,17.27,0,1,1,0-34.53,17.24,17.24,0,0,1,12.1,5,17.3,17.3,0,0,1,0,24.58A17.23,17.23,0,0,1,154.44,196.41Z"/><path class="cls-7" d="M91.23,150a29.47,29.47,0,0,1,20.83,50.33,29.42,29.42,0,0,1-41.67,0A29.49,29.49,0,0,1,91.23,150Zm0,12.64a17,17,0,1,0,0,33.95,16.92,16.92,0,0,0,11.93-4.91,17,17,0,0,0,0-24.15A16.93,16.93,0,0,0,91.22,162.59Z"/><path class="cls-8" d="M57.54,162.49a6,6,0,0,0,4.35-1.84,5.73,5.73,0,0,0,1.84-4.35v-.11a6,6,0,0,0-1.84-4.4A6,6,0,0,0,57.54,150H49.86v-14.8a6.2,6.2,0,0,0-6.2-6.19h-.15a6.21,6.21,0,0,0-6.2,6.19v15.11a6.32,6.32,0,0,0,0,12v30.56a16.1,16.1,0,0,0,16.13,16.08h4.1a6,6,0,0,0,4.35-1.84,5.73,5.73,0,0,0,1.84-4.35v-.11a6,6,0,0,0-1.84-4.4,6,6,0,0,0-4.35-1.84h-4.1a3.47,3.47,0,0,1-2.56-1,3.42,3.42,0,0,1-1-2.51V162.49Z"/><text class="cls-9" transform="translate(81.24 240.4)">CRM<tspan class="cls-10" x="97.15" y="0">_</tspan><tspan x="124.69" y="0">ER</tspan><tspan class="cls-11" x="185.74" y="0">P</tspan><tspan class="cls-12" x="216.09" y="0">_</tspan><tspan class="cls-13" x="242.91" y="0">W</tspan><tspan x="280.64" y="0">EB</tspan></text></svg>